<mxfile host="app.diagrams.net" agent="Mozilla/5.0 (Windows NT 10.0; Win64; x64) AppleWebKit/537.36 (KHTML, like Gecko) Chrome/121.0.0.0 Safari/537.36 Edg/121.0.0.0" version="26.1.2">
  <diagram id="C5RBs43oDa-KdzZeNtuy" name="Page-1">
    <mxGraphModel dx="1426" dy="793" grid="1" gridSize="10" guides="1" tooltips="1" connect="1" arrows="1" fold="1" page="1" pageScale="1" pageWidth="827" pageHeight="1169" math="0" shadow="0">
      <root>
        <mxCell id="WIyWlLk6GJQsqaUBKTNV-0" />
        <mxCell id="WIyWlLk6GJQsqaUBKTNV-1" parent="WIyWlLk6GJQsqaUBKTNV-0" />
        <mxCell id="cRZvE2xE962moGoyea8v-0" value="" style="edgeStyle=orthogonalEdgeStyle;rounded=0;orthogonalLoop=1;jettySize=auto;html=1;entryX=1;entryY=0.5;entryDx=0;entryDy=0;entryPerimeter=0;" edge="1" parent="WIyWlLk6GJQsqaUBKTNV-1" source="cRZvE2xE962moGoyea8v-6" target="cRZvE2xE962moGoyea8v-38">
          <mxGeometry relative="1" as="geometry">
            <mxPoint x="770" y="1080" as="targetPoint" />
            <Array as="points">
              <mxPoint x="780" y="307" />
              <mxPoint x="780" y="816" />
            </Array>
          </mxGeometry>
        </mxCell>
        <mxCell id="cRZvE2xE962moGoyea8v-44" value="！=3,5" style="edgeLabel;html=1;align=center;verticalAlign=middle;resizable=0;points=[];" vertex="1" connectable="0" parent="cRZvE2xE962moGoyea8v-0">
          <mxGeometry x="-0.3683" relative="1" as="geometry">
            <mxPoint y="1" as="offset" />
          </mxGeometry>
        </mxCell>
        <mxCell id="cRZvE2xE962moGoyea8v-2" value="" style="edgeStyle=orthogonalEdgeStyle;rounded=0;orthogonalLoop=1;jettySize=auto;html=1;entryX=0.5;entryY=0;entryDx=0;entryDy=0;" edge="1" parent="WIyWlLk6GJQsqaUBKTNV-1" source="cRZvE2xE962moGoyea8v-6" target="cRZvE2xE962moGoyea8v-14">
          <mxGeometry relative="1" as="geometry">
            <mxPoint x="328" y="306.5" as="targetPoint" />
          </mxGeometry>
        </mxCell>
        <mxCell id="cRZvE2xE962moGoyea8v-3" value="=3" style="edgeLabel;html=1;align=center;verticalAlign=middle;resizable=0;points=[];" vertex="1" connectable="0" parent="cRZvE2xE962moGoyea8v-2">
          <mxGeometry x="0.125" y="-3" relative="1" as="geometry">
            <mxPoint as="offset" />
          </mxGeometry>
        </mxCell>
        <mxCell id="cRZvE2xE962moGoyea8v-4" value="" style="edgeStyle=orthogonalEdgeStyle;rounded=0;orthogonalLoop=1;jettySize=auto;html=1;entryX=0.5;entryY=0;entryDx=0;entryDy=0;" edge="1" parent="WIyWlLk6GJQsqaUBKTNV-1" source="cRZvE2xE962moGoyea8v-6" target="cRZvE2xE962moGoyea8v-28">
          <mxGeometry relative="1" as="geometry">
            <mxPoint x="463" y="413.5" as="targetPoint" />
          </mxGeometry>
        </mxCell>
        <mxCell id="cRZvE2xE962moGoyea8v-5" value="=5" style="edgeLabel;html=1;align=center;verticalAlign=middle;resizable=0;points=[];" vertex="1" connectable="0" parent="cRZvE2xE962moGoyea8v-4">
          <mxGeometry x="-0.1655" relative="1" as="geometry">
            <mxPoint as="offset" />
          </mxGeometry>
        </mxCell>
        <mxCell id="cRZvE2xE962moGoyea8v-6" value="字段数量" style="rhombus;whiteSpace=wrap;html=1;shadow=0;fontFamily=Helvetica;fontSize=12;align=center;strokeWidth=1;spacing=6;spacingTop=-4;" vertex="1" parent="WIyWlLk6GJQsqaUBKTNV-1">
          <mxGeometry x="418" y="273" width="90" height="67" as="geometry" />
        </mxCell>
        <mxCell id="cRZvE2xE962moGoyea8v-7" value="" style="edgeStyle=orthogonalEdgeStyle;rounded=0;orthogonalLoop=1;jettySize=auto;html=1;" edge="1" parent="WIyWlLk6GJQsqaUBKTNV-1" source="cRZvE2xE962moGoyea8v-8" target="cRZvE2xE962moGoyea8v-10">
          <mxGeometry relative="1" as="geometry" />
        </mxCell>
        <mxCell id="cRZvE2xE962moGoyea8v-8" value="开始" style="strokeWidth=2;html=1;shape=mxgraph.flowchart.terminator;whiteSpace=wrap;" vertex="1" parent="WIyWlLk6GJQsqaUBKTNV-1">
          <mxGeometry x="433" y="40" width="60" height="40" as="geometry" />
        </mxCell>
        <mxCell id="cRZvE2xE962moGoyea8v-9" value="" style="edgeStyle=orthogonalEdgeStyle;rounded=0;orthogonalLoop=1;jettySize=auto;html=1;" edge="1" parent="WIyWlLk6GJQsqaUBKTNV-1" source="cRZvE2xE962moGoyea8v-10" target="cRZvE2xE962moGoyea8v-12">
          <mxGeometry relative="1" as="geometry" />
        </mxCell>
        <mxCell id="cRZvE2xE962moGoyea8v-10" value="根据换行符把文本转成String[]数组" style="rounded=1;whiteSpace=wrap;html=1;fontSize=12;glass=0;strokeWidth=1;shadow=0;" vertex="1" parent="WIyWlLk6GJQsqaUBKTNV-1">
          <mxGeometry x="393" y="121" width="140" height="40" as="geometry" />
        </mxCell>
        <mxCell id="cRZvE2xE962moGoyea8v-11" value="" style="edgeStyle=orthogonalEdgeStyle;rounded=0;orthogonalLoop=1;jettySize=auto;html=1;" edge="1" parent="WIyWlLk6GJQsqaUBKTNV-1" source="cRZvE2xE962moGoyea8v-12" target="cRZvE2xE962moGoyea8v-6">
          <mxGeometry relative="1" as="geometry" />
        </mxCell>
        <mxCell id="cRZvE2xE962moGoyea8v-12" value="&lt;div data-docx-has-block-data=&quot;false&quot; data-lark-html-role=&quot;root&quot; data-page-id=&quot;Aed7douATo9B6cx0R7Rc3emsnXd&quot;&gt;&lt;div class=&quot;old-record-id-WZW5dhf2ooNl1qxLG0lcdsG0n3e&quot;&gt;以空格（“ ”）或半角逗号（,）或全角逗号（，）作为分隔，把每一行拆分字段&lt;/div&gt;&lt;/div&gt;&lt;span class=&quot;lark-record-clipboard&quot; data-lark-record-format=&quot;docx/text&quot; data-lark-record-data=&quot;{&amp;quot;rootId&amp;quot;:&amp;quot;Aed7douATo9B6cx0R7Rc3emsnXd&amp;quot;,&amp;quot;text&amp;quot;:{&amp;quot;initialAttributedTexts&amp;quot;:{&amp;quot;text&amp;quot;:{&amp;quot;0&amp;quot;:&amp;quot;以空格（“ ”）或半角逗号（,）或全角逗号（，）作为分隔，拆分元素&amp;quot;},&amp;quot;attribs&amp;quot;:{&amp;quot;0&amp;quot;:&amp;quot;*0+x&amp;quot;}},&amp;quot;apool&amp;quot;:{&amp;quot;numToAttrib&amp;quot;:{&amp;quot;0&amp;quot;:[&amp;quot;author&amp;quot;,&amp;quot;7403194829083705347&amp;quot;]},&amp;quot;nextNum&amp;quot;:1}},&amp;quot;type&amp;quot;:&amp;quot;text&amp;quot;,&amp;quot;referenceRecordMap&amp;quot;:{},&amp;quot;extra&amp;quot;:{&amp;quot;channel&amp;quot;:&amp;quot;saas&amp;quot;,&amp;quot;isEqualBlockSelection&amp;quot;:false,&amp;quot;pasteRandomId&amp;quot;:&amp;quot;011ff010-0866-426b-a94f-de44540d47f7&amp;quot;,&amp;quot;mention_page_title&amp;quot;:{},&amp;quot;external_mention_url&amp;quot;:{}},&amp;quot;isKeepQuoteContainer&amp;quot;:false,&amp;quot;isFromCode&amp;quot;:false,&amp;quot;selection&amp;quot;:[{&amp;quot;id&amp;quot;:1293,&amp;quot;type&amp;quot;:&amp;quot;text&amp;quot;,&amp;quot;selection&amp;quot;:{&amp;quot;start&amp;quot;:4,&amp;quot;end&amp;quot;:37},&amp;quot;recordId&amp;quot;:&amp;quot;WZW5dhf2ooNl1qxLG0lcdsG0n3e&amp;quot;}],&amp;quot;payloadMap&amp;quot;:{},&amp;quot;isCut&amp;quot;:false}&quot;&gt;&lt;/span&gt;" style="whiteSpace=wrap;html=1;rounded=1;glass=0;strokeWidth=1;shadow=0;" vertex="1" parent="WIyWlLk6GJQsqaUBKTNV-1">
          <mxGeometry x="388" y="190" width="150" height="46" as="geometry" />
        </mxCell>
        <mxCell id="cRZvE2xE962moGoyea8v-46" value="" style="edgeStyle=orthogonalEdgeStyle;rounded=0;orthogonalLoop=1;jettySize=auto;html=1;entryX=0;entryY=0.5;entryDx=0;entryDy=0;exitX=0.5;exitY=1;exitDx=0;exitDy=0;" edge="1" parent="WIyWlLk6GJQsqaUBKTNV-1" source="cRZvE2xE962moGoyea8v-14" target="cRZvE2xE962moGoyea8v-37">
          <mxGeometry relative="1" as="geometry">
            <mxPoint x="283" y="530" as="targetPoint" />
          </mxGeometry>
        </mxCell>
        <mxCell id="cRZvE2xE962moGoyea8v-14" value="&lt;font&gt;&lt;font&gt;&lt;font&gt;&lt;font&gt;按照（&lt;span style=&quot;background-color: transparent;&quot;&gt;年限、债券代码、加权利率&lt;/span&gt;&lt;/font&gt;&lt;font&gt;）解析&lt;/font&gt;&lt;/font&gt;&lt;/font&gt;&lt;br&gt;&lt;/font&gt;" style="whiteSpace=wrap;html=1;shadow=0;strokeWidth=1;spacing=6;spacingTop=-4;" vertex="1" parent="WIyWlLk6GJQsqaUBKTNV-1">
          <mxGeometry x="208" y="390" width="150" height="60" as="geometry" />
        </mxCell>
        <mxCell id="cRZvE2xE962moGoyea8v-27" value="" style="edgeStyle=orthogonalEdgeStyle;rounded=0;orthogonalLoop=1;jettySize=auto;html=1;entryX=0.5;entryY=0;entryDx=0;entryDy=0;" edge="1" parent="WIyWlLk6GJQsqaUBKTNV-1" source="cRZvE2xE962moGoyea8v-28" target="cRZvE2xE962moGoyea8v-37">
          <mxGeometry relative="1" as="geometry">
            <mxPoint x="463" y="650" as="targetPoint" />
          </mxGeometry>
        </mxCell>
        <mxCell id="cRZvE2xE962moGoyea8v-28" value="&lt;font&gt;按照:(&lt;/font&gt;&lt;span style=&quot;background-color: transparent;&quot;&gt;年限、债券代码、加权利率、边际倍数、全场倍数&lt;/span&gt;&lt;br&gt;&lt;span class=&quot;lark-record-clipboard&quot; data-lark-record-format=&quot;docx/text&quot; data-lark-record-data=&quot;{&amp;quot;rootId&amp;quot;:&amp;quot;Aed7douATo9B6cx0R7Rc3emsnXd&amp;quot;,&amp;quot;text&amp;quot;:{&amp;quot;initialAttributedTexts&amp;quot;:{&amp;quot;text&amp;quot;:{&amp;quot;0&amp;quot;:&amp;quot;年限、债券代码、加权利率、边际倍数、全场倍数&amp;quot;},&amp;quot;attribs&amp;quot;:{&amp;quot;0&amp;quot;:&amp;quot;*0+m&amp;quot;}},&amp;quot;apool&amp;quot;:{&amp;quot;numToAttrib&amp;quot;:{&amp;quot;0&amp;quot;:[&amp;quot;author&amp;quot;,&amp;quot;7403194829083705347&amp;quot;]},&amp;quot;nextNum&amp;quot;:1}},&amp;quot;type&amp;quot;:&amp;quot;text&amp;quot;,&amp;quot;referenceRecordMap&amp;quot;:{},&amp;quot;extra&amp;quot;:{&amp;quot;channel&amp;quot;:&amp;quot;saas&amp;quot;,&amp;quot;isEqualBlockSelection&amp;quot;:false,&amp;quot;pasteRandomId&amp;quot;:&amp;quot;116dd224-9e3d-4e98-ae17-5e01dd5c6781&amp;quot;,&amp;quot;mention_page_title&amp;quot;:{},&amp;quot;external_mention_url&amp;quot;:{}},&amp;quot;isKeepQuoteContainer&amp;quot;:false,&amp;quot;isFromCode&amp;quot;:false,&amp;quot;selection&amp;quot;:[{&amp;quot;id&amp;quot;:1310,&amp;quot;type&amp;quot;:&amp;quot;text&amp;quot;,&amp;quot;selection&amp;quot;:{&amp;quot;start&amp;quot;:5,&amp;quot;end&amp;quot;:27},&amp;quot;recordId&amp;quot;:&amp;quot;V9vXdZUH9oGomRxDQMucjXccnVf&amp;quot;}],&amp;quot;payloadMap&amp;quot;:{},&amp;quot;isCut&amp;quot;:false}&quot;&gt;&lt;/span&gt;&lt;font&gt;)结构解析&lt;/font&gt;" style="whiteSpace=wrap;html=1;shadow=0;strokeWidth=1;spacing=6;spacingTop=-4;" vertex="1" parent="WIyWlLk6GJQsqaUBKTNV-1">
          <mxGeometry x="394.5" y="450" width="137" height="60" as="geometry" />
        </mxCell>
        <mxCell id="cRZvE2xE962moGoyea8v-33" value="" style="edgeStyle=orthogonalEdgeStyle;rounded=0;orthogonalLoop=1;jettySize=auto;html=1;" edge="1" parent="WIyWlLk6GJQsqaUBKTNV-1" source="cRZvE2xE962moGoyea8v-37" target="cRZvE2xE962moGoyea8v-40">
          <mxGeometry relative="1" as="geometry" />
        </mxCell>
        <mxCell id="cRZvE2xE962moGoyea8v-34" value="包含" style="edgeLabel;html=1;align=center;verticalAlign=middle;resizable=0;points=[];" vertex="1" connectable="0" parent="cRZvE2xE962moGoyea8v-33">
          <mxGeometry x="-0.18" relative="1" as="geometry">
            <mxPoint as="offset" />
          </mxGeometry>
        </mxCell>
        <mxCell id="cRZvE2xE962moGoyea8v-35" value="" style="edgeStyle=orthogonalEdgeStyle;rounded=0;orthogonalLoop=1;jettySize=auto;html=1;" edge="1" parent="WIyWlLk6GJQsqaUBKTNV-1" source="cRZvE2xE962moGoyea8v-37" target="cRZvE2xE962moGoyea8v-42">
          <mxGeometry relative="1" as="geometry" />
        </mxCell>
        <mxCell id="cRZvE2xE962moGoyea8v-36" value="不包含" style="edgeLabel;html=1;align=center;verticalAlign=middle;resizable=0;points=[];" vertex="1" connectable="0" parent="cRZvE2xE962moGoyea8v-35">
          <mxGeometry x="0.2471" y="-3" relative="1" as="geometry">
            <mxPoint as="offset" />
          </mxGeometry>
        </mxCell>
        <mxCell id="cRZvE2xE962moGoyea8v-37" value="债券代码包含 X或Y" style="rhombus;whiteSpace=wrap;html=1;shadow=0;strokeWidth=1;spacing=6;spacingTop=-4;" vertex="1" parent="WIyWlLk6GJQsqaUBKTNV-1">
          <mxGeometry x="398" y="552" width="130" height="98" as="geometry" />
        </mxCell>
        <mxCell id="cRZvE2xE962moGoyea8v-38" value="结束" style="strokeWidth=2;html=1;shape=mxgraph.flowchart.terminator;whiteSpace=wrap;" vertex="1" parent="WIyWlLk6GJQsqaUBKTNV-1">
          <mxGeometry x="423" y="794" width="80" height="43.5" as="geometry" />
        </mxCell>
        <mxCell id="cRZvE2xE962moGoyea8v-39" value="" style="edgeStyle=orthogonalEdgeStyle;rounded=0;orthogonalLoop=1;jettySize=auto;html=1;" edge="1" parent="WIyWlLk6GJQsqaUBKTNV-1" source="cRZvE2xE962moGoyea8v-40" target="cRZvE2xE962moGoyea8v-38">
          <mxGeometry relative="1" as="geometry" />
        </mxCell>
        <mxCell id="cRZvE2xE962moGoyea8v-40" value="走增发、续发流程" style="whiteSpace=wrap;html=1;shadow=0;strokeWidth=1;spacing=6;spacingTop=-4;" vertex="1" parent="WIyWlLk6GJQsqaUBKTNV-1">
          <mxGeometry x="403" y="702" width="120" height="60" as="geometry" />
        </mxCell>
        <mxCell id="cRZvE2xE962moGoyea8v-41" value="" style="edgeStyle=orthogonalEdgeStyle;rounded=0;orthogonalLoop=1;jettySize=auto;html=1;entryX=1;entryY=0.5;entryDx=0;entryDy=0;entryPerimeter=0;exitX=0.5;exitY=1;exitDx=0;exitDy=0;" edge="1" parent="WIyWlLk6GJQsqaUBKTNV-1" source="cRZvE2xE962moGoyea8v-42" target="cRZvE2xE962moGoyea8v-38">
          <mxGeometry relative="1" as="geometry">
            <mxPoint x="663" y="782" as="targetPoint" />
          </mxGeometry>
        </mxCell>
        <mxCell id="cRZvE2xE962moGoyea8v-42" value="走新发债流程" style="whiteSpace=wrap;html=1;shadow=0;strokeWidth=1;spacing=6;spacingTop=-4;" vertex="1" parent="WIyWlLk6GJQsqaUBKTNV-1">
          <mxGeometry x="603" y="571" width="120" height="60" as="geometry" />
        </mxCell>
      </root>
    </mxGraphModel>
  </diagram>
</mxfile>
